# xmcd
#
# Track frame offsets:
#	150
#	13243
#	20641
#	29562
#	36556
#	45214
#	52449
#	61794
#	72251
#	77289
#	86170
#	95762
#	107596
#	114301
#	122920
#	131740
#	141156
#	150930
#
# Disc length: 2126 seconds
#
# Revision: 1
# Processed by: cddbd v1.5.2PL0 Copyright (c) Steve Scherf et al.
# Submitted via: audiograbber 1.81.03
#
DISCID=f7084c12
DTITLE=The`Weapons Of Mass Seduction - Desperate Men And The Women Who Love The
DTITLE=m
DYEAR=2006
DGENRE=Blues
TTITLE0=Hey Hey Mama
TTITLE1=Learned My Lesson
TTITLE2=Out Of Luck
TTITLE3=You're The One
TTITLE4=I Am
TTITLE5=Ain't Got No Money
TTITLE6=Standing Free
TTITLE7=Let Me Be Your Man
TTITLE8=All My Privacy Is Denied
TTITLE9=What You Got To Lose
TTITLE10=I Can't Stop
TTITLE11=Keep My Eye On You
TTITLE12=You Can't Hide From Me
TTITLE13=Please Please Please
TTITLE14=Eight Dollar Man
TTITLE15=I'm No Good
TTITLE16=Our Love Is Done
TTITLE17=Up Jumped The Devil
EXTD=
EXTT0=
EXTT1=
EXTT2=
EXTT3=
EXTT4=
EXTT5=
EXTT6=
EXTT7=
EXTT8=
EXTT9=
EXTT10=
EXTT11=
EXTT12=
EXTT13=
EXTT14=
EXTT15=
EXTT16=
EXTT17=
PLAYORDER=
